<svg width="40" height="34" fill="none" xmlns="http://www.w3.org/2000/svg"><g clip-path="url(#a)"><path d="m2.581 30.108-.05-.05L0 27.585l14.773-9.701.05.03 4.646 2.64-.14.08-16.748 9.474z" fill="url(#b)"/><path d="m3.792 34-.943-3.446.06-.04 16.848-9.483.02 5.313-.05.02L3.792 33.99V34z" fill="url(#c)"/><path d="m36.207 34-.099-.05-15.885-7.606v-.06l.02-5.253.13.08 16.777 9.443L36.207 34z" fill="url(#d)"/><path d="m37.419 30.108-.06-.03-16.828-9.523.14-.08 4.556-2.591.05.03L40 27.585l-2.581 2.523z" fill="url(#e)"/><path d="M20.243 20.009v-.15L20.223.934 23.748.01v.109l1.21 17.258-4.715 2.642v-.01z" fill="url(#f)"/><path d="m19.668 20.009-4.716-2.642v-.06L16.162 0l3.525.923v.07l-.02 19.016z" fill="url(#g)"/></g><defs><linearGradient id="b" x1="9.739" y1=".109" x2="9.739" y2="33.871" gradientUnits="userSpaceOnUse"><stop stop-color="#33E6BF"/><stop offset="1" stop-color="#0439C7"/></linearGradient><linearGradient id="c" x1="11.308" y1=".109" x2="11.308" y2="33.871" gradientUnits="userSpaceOnUse"><stop stop-color="#33E6BF"/><stop offset="1" stop-color="#0439C7"/></linearGradient><linearGradient id="d" x1="28.692" y1=".109" x2="28.692" y2="33.871" gradientUnits="userSpaceOnUse"><stop stop-color="#33E6BF"/><stop offset="1" stop-color="#0439C7"/></linearGradient><linearGradient id="e" x1="30.261" y1=".109" x2="30.261" y2="33.871" gradientUnits="userSpaceOnUse"><stop stop-color="#33E6BF"/><stop offset="1" stop-color="#0439C7"/></linearGradient><linearGradient id="f" x1="22.586" y1=".109" x2="22.586" y2="33.871" gradientUnits="userSpaceOnUse"><stop stop-color="#33E6BF"/><stop offset="1" stop-color="#0439C7"/></linearGradient><linearGradient id="g" x1="17.325" y1=".109" x2="17.325" y2="33.871" gradientUnits="userSpaceOnUse"><stop stop-color="#33E6BF"/><stop offset="1" stop-color="#0439C7"/></linearGradient><clipPath id="a"><path fill="#fff" d="M0 0h40v34H0z"/></clipPath></defs></svg>