<?xml version="1.0" encoding="UTF-8"?>
<svg xmlns="http://www.w3.org/2000/svg" version="1.1" xmlns:xodm="http://www.corel.com/coreldraw/odm/2003" xmlns:xlink="http://www.w3.org/1999/xlink" viewBox="0 0 24 24">
  <defs>
    <linearGradient id="linear-gradient" gradientTransform="translate(0 23.9) scale(1 -1)" gradientUnits="userSpaceOnUse">
      <stop offset="0" stop-color="#33e6bf"/>
      <stop offset="1" stop-color="#0439c7"/>
    </linearGradient>
    <linearGradient id="linear-gradient-1" x1="7.9" y1="19.6" x2="7.9" y2="6.1" xlink:href="#linear-gradient"/>
    <linearGradient id="linear-gradient-2" x1="8.5" y1="19.6" x2="8.5" y2="6.1" xlink:href="#linear-gradient"/>
    <linearGradient id="linear-gradient-3" x1="15.5" y1="19.6" x2="15.5" y2="6.1" xlink:href="#linear-gradient"/>
    <linearGradient id="linear-gradient-4" x1="16.1" y1="19.6" x2="16.1" y2="6.1" xlink:href="#linear-gradient"/>
    <linearGradient id="linear-gradient-5" x1="13" y1="19.6" x2="13" y2="6.1" xlink:href="#linear-gradient"/>
    <linearGradient id="linear-gradient-6" x1="10.9" y1="19.6" x2="10.9" y2="6.1" xlink:href="#linear-gradient"/>
  </defs>
  <circle cx="12" cy="12" r="12" fill="#02122b"/>
  <path d="M5,16.2h0s-1-1-1-1l5.9-3.9h0s1.9,1.1,1.9,1.1h0s-6.7,3.8-6.7,3.8Z" fill="url(#linear-gradient-1)"/>
  <path d="M5.5,17.8l-.4-1.4h0s6.7-3.8,6.7-3.8v2.1s0,0,0,0l-6.4,3.1h0Z" fill="url(#linear-gradient-2)"/>
  <path d="M18.5,17.8h0s-6.4-3.1-6.4-3.1h0s0-2.1,0-2.1h0s6.7,3.8,6.7,3.8l-.4,1.4Z" fill="url(#linear-gradient-3)"/>
  <path d="M19,16.2h0s-6.7-3.8-6.7-3.8h0s1.8-1.1,1.8-1.1h0s5.9,3.9,5.9,3.9l-1,1Z" fill="url(#linear-gradient-4)"/>
  <path d="M12.1,12.2h0c0,0,0-7.6,0-7.6l1.4-.4h0s.5,6.9.5,6.9l-1.9,1.1s0,0,0,0Z" fill="url(#linear-gradient-5)"/>
  <path d="M11.9,12.2l-1.9-1.1h0s.5-6.9.5-6.9l1.4.4h0s0,7.6,0,7.6h0Z" fill="url(#linear-gradient-6)"/>
</svg>
